<svg fill="#000000" version="1.1" id="Capa_1" xmlns="http://www.w3.org/2000/svg" xmlns:xlink="http://www.w3.org/1999/xlink" width="64px" height="64px" viewBox="0 0 403.16 403.159" xml:space="preserve"><g id="SVGRepo_bgCarrier" stroke-width="0"></g><g id="SVGRepo_tracerCarrier" stroke-linecap="round" stroke-linejoin="round"></g><g id="SVGRepo_iconCarrier"> <g> <path d="M326.459,54.672H0V19.056h326.459V54.672z M0,384.104h326.459v-35.617H0V384.104z M403.16,270.504 c-8.605,2.03-16.501,4.089-23.697,5.966c-15.729,4.104-28.271,7.375-37.781,7.375c-6.444,0-11.49-1.499-15.189-5.269 c-9.081-9.287-7.485-29.5,6.085-77.248c8.801-30.973,7.054-55.396-5.198-72.592c-12.979-18.211-34.518-23.596-43.955-25.125V341.06 H40.068v-78.545c-0.026-0.276-0.011-0.579,0-0.879v-26.403c-0.026-0.279-0.011-0.58,0-0.877v-25.297 c-0.026-0.272-0.011-0.574,0-0.869v-24.651c-0.026-0.282-0.011-0.581,0-0.881v-26.285c-0.026-0.277-0.011-0.572,0-0.875V125.65 c-0.026-0.282-0.011-0.577,0-0.881v-29.85c-0.026-0.274-0.011-0.572,0-0.879V62.096h243.359v32.489 c10.03,1.418,35.579,7.075,51.198,28.991c13.896,19.5,16.085,46.49,6.509,80.192c-8.394,29.517-15.927,60.75-8.273,68.58 c5.519,5.653,21.813,1.401,44.361-4.492c7.251-1.891,15.23-3.973,23.901-6.008L403.16,270.504z M48.974,116.594 c9.737-1.951,33.568-0.578,96.231,17.954c91.107,26.947,123.786,1.119,129.318-4.208v-19.349 c-9.012,6.052-26.445,13.879-56.463,13.879c-19.478,0-44.224-3.294-75.37-12.512c-75.922-22.46-91.027-18.616-93.717-17.182 V116.594z M48.974,147.316c9.737-1.956,33.568-0.577,96.231,17.959c91.107,26.947,123.786,1.122,129.318-4.208v-19.344 c-9.012,6.052-26.445,13.879-56.463,13.879c-19.478,0-44.224-3.294-75.37-12.511c-75.922-22.446-91.027-18.607-93.717-17.18 V147.316z M48.974,174.482c9.737-1.956,33.568-0.577,96.231,17.954c91.107,26.944,123.786,1.13,129.318-4.197v-15.792 c-9.012,6.052-26.445,13.879-56.463,13.879c-19.478,0-44.224-3.294-75.37-12.511c-75.922-22.458-91.027-18.613-93.717-17.18 V174.482z M48.974,200.009c9.737-1.954,33.568-0.574,96.231,17.953c91.107,26.944,123.786,1.124,129.318-4.208v-14.145 c-9.012,6.053-26.445,13.883-56.463,13.883c-19.478,0-44.224-3.295-75.37-12.516c-75.922-22.443-91.027-18.612-93.717-17.175 V200.009z M48.974,226.181c9.737-1.948,33.568-0.574,96.231,17.955c91.107,26.95,123.786,1.121,129.318-4.209v-14.79 c-9.012,6.052-26.445,13.882-56.463,13.882c-19.478,0-44.224-3.3-75.37-12.514c-75.922-22.463-91.027-18.616-93.717-17.183V226.181 z M48.974,253.465c9.737-1.954,33.568-0.574,96.231,17.953c91.107,26.95,123.786,1.134,129.318-4.202v-15.907 c-9.012,6.052-26.445,13.877-56.463,13.877c-19.478,0-44.224-3.294-75.37-12.509c-75.922-22.458-91.027-18.616-93.717-17.183 V253.465z M48.974,70.998v14.867c9.737-1.956,33.568-0.577,96.231,17.959c91.107,26.945,123.786,1.119,129.318-4.21V71.007H48.974 V70.998z M274.524,332.163v-53.571c-9.012,6.053-26.445,13.879-56.463,13.879c-19.478,0-44.224-3.296-75.37-12.512 c-75.922-22.456-91.027-18.615-93.717-17.182v69.386H274.524z"></path> </g> </g></svg>