<?xml version="1.0" encoding="UTF-8"?>
<svg version="1.1" xmlns="http://www.w3.org/2000/svg" width="1280" height="224">
<path d="M0 0 C0.99930038 -0.0071553 1.99860077 -0.01431061 3.02818298 -0.02168274 C4.66382202 -0.02571609 4.66382202 -0.02571609 6.33250427 -0.02983093 C8.0625193 -0.03968773 8.0625193 -0.03968773 9.82748413 -0.04974365 C13.64873826 -0.06947141 17.46995305 -0.08113946 21.29124451 -0.09111023 C22.59775404 -0.09518576 23.90426357 -0.09926128 25.2503643 -0.10346031 C31.45523936 -0.1225055 37.66010261 -0.13673494 43.86500126 -0.14507228 C51.00490548 -0.15482647 58.14449818 -0.18110075 65.28429276 -0.22157317 C70.81656153 -0.25184605 76.34874161 -0.26655188 81.88109154 -0.26985329 C85.17857323 -0.27219214 88.47564809 -0.28300625 91.77305794 -0.30631447 C95.46109139 -0.33075907 99.14832023 -0.3297303 102.83641052 -0.32279968 C103.91266693 -0.33560974 104.98892334 -0.3484198 106.09779358 -0.36161804 C115.56754363 -0.29709038 124.42717216 1.8084171 131.53733826 8.39717102 C132.33140076 9.10357727 133.12546326 9.80998352 133.94358826 10.53779602 C138.36494848 16.04799869 139.41252551 21.9157172 139.44139099 28.90498352 C139.44825424 29.63457275 139.45511749 30.36416199 139.46218872 31.11585999 C139.48032785 33.50150108 139.47663855 35.88647652 139.47093201 38.27217102 C139.47549949 39.94551301 139.48080674 41.61885312 139.48681641 43.29219055 C139.49572178 46.78885041 139.49335326 50.28528155 139.48338318 53.78193665 C139.47188712 58.24729195 139.49212746 62.71185717 139.52130032 67.17710876 C139.53970532 70.62939914 139.5393615 74.08150158 139.5336628 77.53382874 C139.53351016 79.17955129 139.53950665 80.82528704 139.55195427 82.47096252 C139.61479268 92.13811594 139.45172424 99.30336482 133.39671326 107.31904602 C124.02789779 116.50594274 113.64468481 118.44908517 100.87059021 118.43769836 C99.23230003 118.4477742 99.23230003 118.4477742 97.56091309 118.45805359 C93.96576837 118.47698304 90.3708109 118.48095548 86.77561951 118.48310852 C84.26228765 118.48954068 81.74895653 118.49626935 79.23562622 118.50328064 C73.97103166 118.51524132 68.70648415 118.51904877 63.44187927 118.51777649 C57.3876808 118.51657736 51.33384011 118.53764321 45.27973205 118.56926382 C39.42245808 118.59874805 33.56532362 118.60574766 27.70798302 118.60455704 C25.23185454 118.6069053 22.75572295 118.61568475 20.27964211 118.63122177 C-10.70083545 118.80739773 -10.70083545 118.80739773 -22.15406799 109.01435852 C-27.94499174 103.03582385 -29.08141554 97.00274837 -29.12379456 88.91938782 C-29.12875946 88.19852997 -29.13372437 87.47767212 -29.13883972 86.73497009 C-29.15341783 84.35543352 -29.1602562 81.97596362 -29.16578674 79.59638977 C-29.17154196 77.93735758 -29.17729964 76.27832539 -29.18305969 74.61929321 C-29.19355743 71.14168489 -29.19940806 67.6640996 -29.20289612 64.18647766 C-29.20837704 59.74125048 -29.23240153 55.29633019 -29.26086807 50.85119915 C-29.27953812 47.42385991 -29.28470238 43.99659394 -29.28623199 40.56920815 C-29.2892494 38.93102657 -29.29724703 37.292846 -29.31041718 35.65471458 C-29.32756892 33.35728819 -29.32557556 31.06060314 -29.31910706 28.76313782 C-29.32275269 27.45837997 -29.32639832 26.15362213 -29.33015442 24.80932617 C-28.55636816 17.09835523 -24.69903028 11.23313346 -18.96266174 6.14717102 C-12.8652655 2.34802413 -7.20214581 0.03550186 0 0 Z M7.03733826 21.14717102 C7.03733826 45.89717102 7.03733826 70.64717102 7.03733826 96.14717102 C38.71733826 96.14717102 70.39733826 96.14717102 103.03733826 96.14717102 C103.03733826 71.39717102 103.03733826 46.64717102 103.03733826 21.14717102 C71.35733826 21.14717102 39.67733826 21.14717102 7.03733826 21.14717102 Z " fill="#000000" transform="translate(422.96266174316406,87.85282897949219)"/>
<path d="M0 0 C35.47112345 0 46.41312606 6.81716033 69.57421875 27.85546875 C73.05035684 30.92857634 76.66396767 33.82315577 80.26953125 36.7421875 C83.83617741 39.69143139 87.25990049 42.78159575 90.68359375 45.89453125 C96.92935897 51.57154213 103.36636595 57.02881404 109.78051758 62.51342773 C113.84196239 65.9919319 117.86372339 69.50987853 121.83984375 73.0859375 C124.8599561 75.76198642 127.93629693 78.37396879 131 81 C131.495 40.905 131.495 40.905 132 0 C143.88 0 155.76 0 168 0 C168 38.94 168 77.88 168 118 C133.23693852 118 120.65770911 109.7596491 97.68359375 88.2902832 C94.38751713 85.22483145 91.01160825 82.32046683 87.5 79.5 C81.60260129 74.75979435 76.10491414 69.63808312 70.58007812 64.47558594 C64.27447824 58.58698184 57.95109599 52.86985886 51.06640625 47.66015625 C48.36644594 45.49100099 45.98353133 43.09123805 43.60546875 40.578125 C41.70586835 38.64094936 41.70586835 38.64094936 38 36 C37.67 63.06 37.34 90.12 37 118 C24.79 118 12.58 118 0 118 C0 79.06 0 40.12 0 0 Z " fill="#000000" transform="translate(597,88)"/>
<path d="M0 0 C1.69944008 -0.01029488 1.69944008 -0.01029488 3.43321228 -0.02079773 C7.15767145 -0.03901487 10.88170725 -0.03523471 14.60620117 -0.02954102 C17.21018103 -0.03410575 19.81415968 -0.03941219 22.4181366 -0.04542542 C27.86929325 -0.05543128 33.3203311 -0.05218068 38.77148438 -0.04199219 C45.04443012 -0.03052573 51.31694758 -0.04457045 57.5898369 -0.07138866 C63.65697918 -0.09634215 69.72392604 -0.09870206 75.7911129 -0.0922718 C78.35737507 -0.09211906 80.92364567 -0.09812407 83.4898777 -0.11056328 C87.08862156 -0.12554881 90.68644004 -0.11473894 94.28515625 -0.09765625 C95.33126068 -0.10732422 96.37736511 -0.11699219 97.45516968 -0.12695312 C108.21758593 -0.02072736 118.45821169 2.77179632 126.33666992 10.40405273 C128.84312828 13.47446423 130.2116983 15.27930812 130.64916992 19.21655273 C130.33666992 21.40405273 130.33666992 21.40405273 129.33666992 22.40405273 C127.65375296 22.5002208 125.96677431 22.52592964 124.28111267 22.52430725 C122.63829063 22.52636925 122.63829063 22.52636925 120.96228027 22.5284729 C119.75027954 22.52487762 118.53827881 22.52128235 117.28955078 22.51757812 C115.38738548 22.51779716 115.38738548 22.51779716 113.4467926 22.51802063 C109.9593457 22.51830859 106.47193291 22.51241218 102.98449397 22.50544667 C99.34363269 22.49921281 95.7027707 22.49860931 92.06190491 22.49742126 C85.1629002 22.49430804 78.26391127 22.48609478 71.36491352 22.47607177 C63.51256307 22.46491035 55.66021189 22.45940011 47.80785549 22.45437634 C31.65078293 22.44391216 15.49373211 22.4255668 -0.66333008 22.40405273 C-0.66333008 30.32405273 -0.66333008 38.24405273 -0.66333008 46.40405273 C2.70217041 46.38310547 6.0676709 46.3621582 9.53515625 46.34057617 C20.67900175 46.27417257 31.82285619 46.23006391 42.96684742 46.19680405 C49.72067713 46.17623536 56.47431855 46.14822487 63.22802734 46.10229492 C69.75082879 46.05795669 76.27350844 46.0348865 82.79645348 46.02454376 C85.27983355 46.01717694 87.76320346 46.00279143 90.24650002 45.98113251 C93.73617921 45.95191811 97.22506112 45.94810439 100.71484375 45.94995117 C102.24047188 45.92837952 102.24047188 45.92837952 103.79692078 45.90637207 C112.02951513 45.95323742 119.03778348 47.97424735 126.21166992 52.02905273 C133.58321037 60.26783323 134.06846393 68.78822404 133.83666992 79.46655273 C133.83924805 80.77688477 133.84182617 82.0872168 133.84448242 83.43725586 C133.74473015 93.33766889 132.6345652 101.48669868 126.33666992 109.40405273 C119.64055417 115.94798403 111.65031371 118.50413998 102.38110352 118.55122375 C100.92229012 118.56195671 100.92229012 118.56195671 99.43400574 118.57290649 C97.85055107 118.57693985 97.85055107 118.57693985 96.23510742 118.58105469 C95.11409134 118.58762589 93.99307526 118.59419708 92.83808899 118.60096741 C89.12928191 118.62067109 85.42051533 118.63235834 81.71166992 118.64233398 C80.44167145 118.64640951 79.17167297 118.65048504 77.8631897 118.65468407 C71.83023635 118.67338725 65.79730736 118.68795331 59.76433277 118.69629604 C52.83160608 118.7060444 45.89920071 118.73230581 38.96658707 118.77279693 C32.93793312 118.8067826 26.90943313 118.81845643 20.88067627 118.82250023 C18.32918117 118.8273523 15.77768916 118.83892656 13.22625732 118.85753822 C-20.09561431 119.08544395 -20.09561431 119.08544395 -32.47973633 107.73999023 C-36.486127 103.51980145 -36.66333008 102.86028934 -36.66333008 96.40405273 C8.54666992 96.40405273 53.75666992 96.40405273 100.33666992 96.40405273 C100.33666992 87.16405273 100.33666992 77.92405273 100.33666992 68.40405273 C96.96593262 68.41976318 93.59519531 68.43547363 90.12231445 68.45166016 C78.96646662 68.50144234 67.81061002 68.53468932 56.65468025 68.55948925 C49.89302002 68.5749219 43.13146544 68.59594196 36.36987305 68.63037109 C29.84058914 68.66360134 23.31137361 68.68092285 16.78200912 68.68868446 C14.29502514 68.6942135 11.80804693 68.70501029 9.32110977 68.7212429 C5.82893314 68.74312359 2.33720521 68.74601515 -1.1550293 68.74462891 C-2.17570999 68.75541473 -3.19639069 68.76620056 -4.2480011 68.77731323 C-13.0701311 68.73959352 -21.77596886 67.3075052 -28.66333008 61.40405273 C-33.79575387 54.04372793 -33.94247742 47.81339981 -34.01342773 39.13061523 C-34.02987092 37.66040082 -34.05700483 36.1902624 -34.09545898 34.72045898 C-34.35850631 24.60114261 -33.8590355 16.13941824 -26.73120117 8.27124023 C-19.16987304 0.76474849 -10.23165933 -0.04377526 0 0 Z " fill="#000000" transform="translate(234.663330078125,87.595947265625)"/>
<path d="M0 0 C0 0.66 0 1.32 0 2 C-4.50896186 3.64768166 -8.9335981 4.58379349 -13.66796875 5.26171875 C-15.19796912 5.4915945 -16.72791467 5.72183539 -18.2578125 5.95239258 C-19.46099121 6.13120468 -19.46099121 6.13120468 -20.68847656 6.31362915 C-61.58899733 12.43262436 -102.39480422 21.03167654 -142 33 C-142.79380066 33.23974548 -143.58760132 33.47949097 -144.40545654 33.72650146 C-187.26411992 46.69679466 -228.79121706 61.53171006 -269.28759766 80.72167969 C-271.71874835 81.86744972 -274.15822263 82.99070205 -276.60546875 84.1015625 C-293.67505109 91.88737616 -310.06330384 101.11618363 -326 111 C-326.7115625 111.43747559 -327.423125 111.87495117 -328.15625 112.32568359 C-349.68216314 125.58125981 -370.17743563 140.09825559 -389.34521484 156.58789062 C-390.99519491 157.99589958 -392.66096377 159.38273986 -394.33203125 160.765625 C-394.8605368 161.20793961 -395.38904236 161.65025421 -395.93356323 162.10597229 C-397.0900327 163.07309055 -398.25130396 164.03451649 -399.41882324 164.98826599 C-402.82667353 167.85676925 -405.69354629 170.76401966 -408.4050293 174.30395508 C-414.08545243 181.41604879 -419.26939458 187.07158975 -428.62451172 188.37792969 C-436.12632246 188.87462681 -443.56668281 188.49030334 -451.0625 188.0625 C-453.68269498 187.9770571 -456.30316028 187.89952035 -458.92382812 187.83007812 C-465.2885375 187.64442032 -471.6429794 187.36151272 -478 187 C-476.49699208 183.85250568 -474.94348946 181.68668774 -472.47265625 179.20703125 C-471.41667236 178.14488403 -471.41667236 178.14488403 -470.33935547 177.0612793 C-469.58799316 176.31918213 -468.83663086 175.57708496 -468.0625 174.8125 C-467.2905127 174.04655518 -466.51852539 173.28061035 -465.72314453 172.49145508 C-460.06671792 166.93255306 -454.27046254 161.85851223 -448 157 C-446.82723688 156.05218279 -445.65681743 155.10146111 -444.48828125 154.1484375 C-436.80531852 147.89679115 -428.96421519 141.97088846 -420.84521484 136.29931641 C-418.91221697 134.93818718 -416.99623903 133.55538204 -415.08203125 132.16796875 C-387.77567382 112.46319011 -358.06342313 96.06759685 -328 81 C-326.83065918 80.41331543 -325.66131836 79.82663086 -324.45654297 79.22216797 C-295.1604934 64.57939185 -264.92924015 52.69337745 -234 42 C-233.32775391 41.76754578 -232.65550781 41.53509155 -231.96289062 41.29559326 C-160.0257672 16.51373548 -76.50187796 -2.72500093 0 0 Z " fill="#000000" transform="translate(1269,19)"/>
<path d="M0 0 C34.98 0 69.96 0 106 0 C106.061875 15.51 106.12375 31.02 106.1875 47 C106.21481201 51.88683594 106.24212402 56.77367187 106.27026367 61.80859375 C106.28381348 67.80273438 106.28381348 67.80273438 106.28633118 70.61401367 C106.29092042 72.56618301 106.30143528 74.51834414 106.31672668 76.47045898 C106.33879467 79.43748619 106.3417144 82.40399635 106.34057617 85.37109375 C106.3513705 86.23230331 106.36216482 87.09351288 106.37328625 87.9808197 C106.332246 96.01201924 104.09203238 102.63495952 99 109 C86.61248955 120.06969019 70.00900703 118.57895855 54.4921875 118.49609375 C52.11573238 118.49624899 49.73927701 118.49774214 47.36282349 118.50050354 C42.40208634 118.5018821 37.44164022 118.48941853 32.48095703 118.46655273 C26.14523646 118.43813915 19.80999766 118.44092143 13.47424126 118.45364285 C8.57382136 118.46062009 3.67351146 118.45278785 -1.22689438 118.44038582 C-3.56231132 118.43589341 -5.89774016 118.43551502 -8.23315811 118.43945122 C-11.50350138 118.44238435 -14.77319607 118.42575702 -18.04345703 118.40405273 C-18.99336517 118.40855438 -19.94327332 118.41305603 -20.92196655 118.41769409 C-32.2563675 118.29365511 -43.67718678 115.45100602 -51.9375 107.375 C-55.89666037 103.24448645 -56 102.28816182 -56 96 C-14.42 96 27.16 96 70 96 C70 71.25 70 46.5 70 21 C46.9 21 23.8 21 0 21 C0 14.07 0 7.14 0 0 Z " fill="#000000" transform="translate(62,88)"/>
<path d="M0 0 C3.30886818 1.99747254 6.29075206 4.34622296 9.3125 6.75 C11.10039231 8.1330245 12.88947796 9.51450753 14.6796875 10.89453125 C15.57397461 11.58885254 16.46826172 12.28317383 17.38964844 12.99853516 C21.17575514 15.90150024 25.05085927 18.67149353 28.9375 21.4375 C37.48027823 27.55542222 45.83164587 33.91214734 54.1640625 40.3125 C57.06917119 42.5403928 59.98925262 44.73674256 62.9609375 46.875 C63.81196045 47.49133301 63.81196045 47.49133301 64.68017578 48.12011719 C66.11943234 49.15602377 67.56712986 50.18017645 69.015625 51.203125 C71.22858584 53.20698718 71.43541241 54.16533034 72 57 C64.75005597 57.32824278 57.50177571 57.57500009 50.24583626 57.72537041 C46.87289252 57.79767306 43.50897765 57.90299073 40.13818359 58.05615234 C24.93435689 58.72898811 13.21828643 59.03482538 1.50894165 48.39718628 C0.25641417 47.18626544 -0.98314536 45.96174667 -2.20756531 44.72241211 C-4.99643818 42.0424883 -8.1167934 39.91185854 -11.3125 37.75 C-16.03775793 34.43306598 -20.67388698 31.02018498 -25.25 27.5 C-25.79954346 27.0781543 -26.34908691 26.65630859 -26.9152832 26.22167969 C-29.05809256 24.56294998 -31.08161225 22.91838775 -33 21 C-32.98828125 19.171875 -32.98828125 19.171875 -32 17 C-30.09449482 15.2628883 -28.25954169 13.76013709 -26.1875 12.25 C-25.31714111 11.60454224 -25.31714111 11.60454224 -24.42919922 10.94604492 C-23.22289321 10.05824689 -22.0122095 9.17636842 -20.79736328 8.30029297 C-19.08838462 7.06394138 -17.40180808 5.80127546 -15.71484375 4.53515625 C-14.69519531 3.80167969 -13.67554688 3.06820312 -12.625 2.3125 C-11.70976563 1.64863281 -10.79453125 0.98476562 -9.8515625 0.30078125 C-5.91363299 -1.49556194 -4.152679 -1.25667459 0 0 Z " fill="#000000" transform="translate(935,149)"/>
<path d="M0 0 C7.28487753 -0.28088986 14.56854765 -0.49264789 21.85778809 -0.62174606 C25.2447329 -0.68378703 28.62791636 -0.76754125 32.01269531 -0.90527344 C58.76399541 -1.9136373 58.76399541 -1.9136373 69.09770203 7.22085571 C70.23478098 8.29831884 71.35742737 9.3912832 72.46282959 10.5012207 C74.66542367 12.64880459 77.10676192 14.38851607 79.61328125 16.1640625 C80.40541016 16.74800781 81.19753906 17.33195312 82.01367188 17.93359375 C82.77228516 18.49175781 83.53089844 19.04992187 84.3125 19.625 C85.12138672 20.22183594 85.93027344 20.81867188 86.76367188 21.43359375 C87.53904297 22.00464844 88.31441406 22.57570313 89.11328125 23.1640625 C90.13095581 23.91357178 90.13095581 23.91357178 91.16918945 24.67822266 C92.75363352 25.82213253 94.37398706 26.91599137 96 28 C96 29.32 96 30.64 96 32 C95.00742187 32.54527344 94.01484375 33.09054688 92.9921875 33.65234375 C91.61929744 34.41317137 90.24694156 35.17496336 88.875 35.9375 C88.15594482 36.33557861 87.43688965 36.73365723 86.69604492 37.14379883 C83.03510833 39.19676942 79.46601009 41.30827107 75.99609375 43.671875 C75.37428223 44.093479 74.7524707 44.51508301 74.11181641 44.94946289 C72.9324617 45.76092934 71.76356029 46.58785039 70.60693359 47.43139648 C68.07728526 49.16857429 66.6536724 50.11418316 63.5625 49.57421875 C60.10630353 47.4509761 56.89654835 45.10302658 53.6875 42.625 C52.25008821 41.53113408 50.81258575 40.4373873 49.375 39.34375 C48.64539063 38.78558594 47.91578125 38.22742188 47.1640625 37.65234375 C43.85285353 35.12411019 40.52098344 32.62374864 37.1875 30.125 C36.54047119 29.6388623 35.89344238 29.15272461 35.22680664 28.65185547 C30.71167931 25.26482244 26.16960547 21.91598479 21.61767578 18.57861328 C3.23301743 5.09172875 3.23301743 5.09172875 0 2 C0 1.34 0 0.68 0 0 Z " fill="#000000" transform="translate(794,88)"/>
</svg>
